<?xml version="1.0" encoding="utf-8"?>
<!-- Generator: Adobe Illustrator 26.3.1, SVG Export Plug-In . SVG Version: 6.00 Build 0)  -->
<svg version="1.1" id="Слой_1" xmlns="http://www.w3.org/2000/svg" xmlns:xlink="http://www.w3.org/1999/xlink" x="0px" y="0px"
	 viewBox="0 0 1200 580" style="enable-background:new 0 0 1200 580;" xml:space="preserve">
<style type="text/css">
	.st0{fill:#FFFA72;}
	.st1{fill:#FFFFFF;}
	.st2{fill:#D5D5FF;}
	.st3{fill:#BFBFFF;}
	.st4{fill:#AAAAFF;}
	.st5{fill:#9595FF;}
	.st6{fill:#8080FF;}
	.st7{fill:#6A6AFF;}
	.st8{fill:#5555FF;}
	.st9{fill:#4040FF;}
	.st10{fill:#2A2AFF;}
	.st11{fill:#1515FF;}
</style>
<path class="st0" d="M75.9-82C64.6-0.3,85,42.2,137.1,45.6c78.1,5.1,247.1-36.2,334.7,0.6c87.7,36.9,284.3-75,288.6-187.1
	c4.3-112.1,20.3-287.9-322.2-179.9C209.9-248.8,89.1-169.2,75.9-82L75.9-82z"/>
<path class="st1" d="M-375.4,214.5c85.5,191.7,216.1,287.7,391.7,287.9c263.4,0.3,754.2-121.2,1096.4-48.4
	c342.3,72.8,818-216.9,664.1-478.5c-154-261.6-365.1-673-1324.1-370.7C-186.6-193.6-462.6,9.6-375.4,214.5L-375.4,214.5z"/>
<path class="st2" d="M-297.8,198.2C-235.4,395-127.6,496.8,25.6,503.5c229.8,10,665.9-94.5,959.9-8.3
	c294,86.2,727.7-188.9,610.2-458.8C1478-233.6,1320.2-657,463.9-387.1C-106.9-207.1-360.8-12-297.8,198.2L-297.8,198.2z"/>
<path class="st3" d="M-264.5,167.9c48.9,185,144.1,280.7,285.6,286.9c212.3,9.4,620.7-88.8,889.1-7.8
	c268.3,81,682.3-177.5,585.6-431.2C1399-238,1271.9-636,467.1-382.2C-69.5-213-313.4-29.7-264.5,167.9L-264.5,167.9z"/>
<path class="st4" d="M-230.8,136.2c36.6,172,119.9,260.8,250.1,266.4c195.3,8.3,576.2-83.8,819.8-8.9
	c243.6,74.9,637-166.4,559.5-402.3c-77.5-235.8-176.4-605.9-929.9-368.3C-33.6-218.5-266.8-47.5-230.8,136.2L-230.8,136.2z"/>
<path class="st5" d="M-196,105.3c25.8,159.3,98.3,241.4,217.5,246.3c178.8,7.4,532.5-78.6,752.7-9.7
	c220.2,68.9,592-155.3,531.5-373.6C1245.2-250,1171.1-592.5,469-371.2C0.9-223.6-220.8-64.8-196,105.3L-196,105.3z"/>
<path class="st6" d="M-160.1,75.5C-143.6,222.4-81,298,27.6,302.4c162.9,6.6,489.6-73.2,687.6-10c197.9,63.3,547.3-144,501.7-345.4
	C1171.2-254.3,1118.7-570.2,468-365C34.1-228.3-175.2-81.4-160.1,75.5L-160.1,75.5z"/>
<path class="st7" d="M-121.7,51.4c9.6,137.9,63.7,209.3,162.3,214c147.9,7.1,448-66.1,625.7-5.6c177.7,60.4,503-132.2,469-321.3
	c-34-189.1-70.1-485.8-669.5-296.9C66.1-232.5-129.7-95.9-121.7,51.4L-121.7,51.4z"/>
<path class="st8" d="M-84.9,20.1C-82.5,144.3-37,208.3,51.5,212.2c132.8,5.7,406.2-61.4,563.4-7.7C772,258.1,1073.6,83.2,1051.5-87
	c-22.1-170.3-41.1-437.4-589.1-264.6C97-236.4-85.4-112.5-84.9,20.1L-84.9,20.1z"/>
<path class="st9" d="M-45.6-5.2c-2.5,114.1,35.8,173,114.8,176.8c118.6,5.8,365.6-54.9,504.2-5C712,216.6,988.2,57.1,974.9-99.3
	c-13.4-156.4-20.4-401.7-517-245.1C126.8-240-41-126.9-45.6-5.2L-45.6-5.2z"/>
<path class="st10" d="M-5.6-30.6C-12,73,19.7,126.6,89.5,130.4c104.7,5.7,325.6-48.5,446.4-2.7c120.8,45.8,371.1-98,365.1-240
	c-6.1-142.1-3.3-364.9-448.5-224.5C155.5-243.3,2.9-141.2-5.6-30.6L-5.6-30.6z"/>
<path class="st11" d="M34.8-56.2c-9.3,92.8,16.4,141,77.3,144.6c91.2,5.4,286-42.3,389.9-0.8C605.8,129,829.6,1.1,829.4-126.2
	c-0.2-127.3,10.2-326.9-383.6-202.7C183.2-246.2,46.2-155.3,34.8-56.2L34.8-56.2z"/>
</svg>
